<?xml version="1.0" encoding="UTF-8"?>
<!DOCTYPE svg PUBLIC "-//W3C//DTD SVG 1.1//EN" "http://www.w3.org/Graphics/SVG/1.1/DTD/svg11.dtd">
<svg xmlns="http://www.w3.org/2000/svg" xml:space="preserve" width="16px" height="16px" version="1.1" style="shape-rendering:geometricPrecision; text-rendering:geometricPrecision; image-rendering:optimizeQuality; fill-rule:evenodd; clip-rule:evenodd"
viewBox="0 0 0.51 0.51"
 xmlns:xlink="http://www.w3.org/1999/xlink">
 <g id="Capa_x0020_1">
  <metadata id="CorelCorpID_0Corel-Layer"/>
  <path d="M0.25 0c-0.14,0 -0.25,0.11 -0.25,0.25 0,0.14 0.11,0.26 0.25,0.26 0.14,0 0.26,-0.12 0.26,-0.26 0,-0.14 -0.12,-0.25 -0.26,-0.25zm-0.02 0.37l0 0.03 -0.09 0 -0.03 0 0 -0.03 0 0 0 -0.09 0.03 0 0 0.07 0.08 -0.09 0.03 0.02 -0.09 0.09 0.07 0zm0.14 -0.14l0 -0.07 -0.09 0.08 -0.02 -0.02 0.09 -0.08 -0.07 0 0 -0.03 0.09 0 0.03 0 0 0.03 0 0.09 -0.03 0z"/>
 </g>
</svg>
