<?xml version="1.0" encoding="UTF-8"?>
<svg width="6.3501mm" height="3.3962mm" version="1.1" viewBox="0 0 6.3501 3.3962" xmlns="http://www.w3.org/2000/svg">
 <g transform="translate(-101.82 -146.8)">
  <path d="m105 147.77c0.37385 0 0.68541 0.32352 0.68541 0.74411 0 0.38826-0.31165 0.71178-0.68541 0.71178-0.40502 0-0.71655-0.32352-0.71655-0.71178 0-0.42059 0.31165-0.74411 0.71655-0.74411zm0.18693 1.9735h-0.315c-0.31166-0.0322-0.56079-0.19419-0.77888-0.42059v-0.0322h-0.0316c-0.12472-0.19419-0.2182-0.38823-0.24913-0.64705v-0.2901c0.0316-0.2264 0.0935-0.42059 0.21819-0.58235l0.0316-0.0322v-0.0322h0.0316v-0.0322c0.18693-0.22639 0.43616-0.35585 0.71655-0.38822h0.0316v-0.0322h0.2844c0.2804 0.0322 0.56079 0.19419 0.74772 0.42059v0.0322h0.0316v0.0322c0.15567 0.16166 0.21819 0.38822 0.24914 0.61468v0.0644h0.0316v0.1616h-0.0316v0.1288c-0.0316 0.19419-0.12473 0.42059-0.24914 0.58235v0.0322h-0.0316c-0.18693 0.2264-0.43616 0.35589-0.68539 0.42059zm0.31165-2.9118c-0.12473 0-0.28039-0.0322-0.43619-0.0322h-0.156c-0.15567 0-0.28039 0.0322-0.43619 0.0322-0.81001 0.12946-1.5577 0.51765-2.1808 1.1647h-0.0316l-0.0316 0.0322-0.37385 0.42059h-0.0316v0.0969h0.0316l0.12472 0.16166 0.24913 0.25892 0.0632 0.0644c0.62309 0.64708 1.3708 1.0029 2.1808 1.1324 0.15567 0.0322 0.28039 0.0322 0.43616 0.0322h0.156c0.15567 0 0.31165 0 0.43619-0.0322 0.81001-0.12946 1.5889-0.48528 2.212-1.1324v-0.0322l0.0316-0.0322 0.40502-0.42059c0.0316-0.0322 0.0316-0.0647 0-0.0969l-0.40502-0.42059-0.0316-0.0322c-0.62308-0.64708-1.402-1.0353-2.212-1.1647z" fill-rule="evenodd"/>
 </g>
</svg>
