<?xml version="1.0" encoding="UTF-8"?>
<svg width="20.956" height="18.337" clip-rule="evenodd" fill-rule="evenodd" image-rendering="optimizeQuality" shape-rendering="geometricPrecision" text-rendering="geometricPrecision" version="1.0" viewBox="0 0 19.559 17.114" xml:space="preserve" xmlns="http://www.w3.org/2000/svg">
 <g transform="translate(0 -2.4858)">
  
  <path class="fil0" d="m5.6931 3.7432-0.39293 1.1875h-2.8553c-1.3447 0-2.4449 1.1002-2.4449 2.4449v9.7795c0 1.3534 1.1002 2.4449 2.4449 2.4449h14.669c1.3534 0 2.4449-1.0915 2.4449-2.4449v-9.7795c0-1.3447-1.0915-2.4449-2.4449-2.4449h-2.8553l-0.39293-1.1875c-0.25322-0.75093-0.95176-1.2574-1.7376-1.2574h-4.6977c-0.78586 0-1.4844 0.50644-1.7376 1.2574zm4.0864 4.8548c2.0258 0 3.6673 1.6416 3.6673 3.6673s-1.6416 3.6673-3.6673 3.6673c-2.0258 0-3.6673-1.6416-3.6673-3.6673s1.6416-3.6673 3.6673-3.6673z" stroke-width=".87317"/>
 </g>
</svg>
