<svg version="1.1" x="0px" y="0px" viewBox="0 0 100 100" enable-background="new 0 0 100 100" xml:space="preserve"><g iExtraneous="self"><path d="M50,5C25.3,5,5.2,25.1,5,49.7c-0.1,12,4.5,23.4,13,31.9c8.4,8.6,19.7,13.3,31.7,13.4c0,0,0.3,0,0.3,0    c24.7,0,44.8-20.1,45-44.7C95.1,25.5,75.1,5.2,50,5z M69,64.7c1.2,1.2,1.2,3.1,0,4.3c-0.6,0.6-1.4,0.9-2.1,0.9    c-0.8,0-1.5-0.3-2.1-0.9L50,54.3L35.3,69c-0.6,0.6-1.4,0.9-2.1,0.9S31.6,69.6,31,69c-1.2-1.2-1.2-3.1,0-4.3L45.7,50L31,35.2    c-1.2-1.2-1.2-3.1,0-4.3c1.2-1.2,3.1-1.2,4.3,0L50,45.7L64.7,31c1.2-1.2,3.1-1.2,4.3,0c1.2,1.2,1.2,3.1,0,4.3L54.3,50L69,64.7z"/></g></svg>