<svg width="512" height="384" enable-background="new 0 0 512 512" version="1.1" viewBox="0 0 512 384" xml:space="preserve" xmlns="http://www.w3.org/2000/svg"><path d="m446.3 144.8c0.718-5.563 1.687-11.06 1.687-16.81 0-70.69-57.28-128-128-128-41.81 0-78.59 20.34-101.9 51.38-8.406-2.031-17.06-3.375-26.06-3.375-61.88 0-112 50.12-112 112 0 1.75 0.438 3.313 0.5 5.063-46.41 13.66-80.5 56.09-80.5 106.9 0 61.88 50.12 112 112 112h272c70.72 0 128-57.28 128-128 0-47.94-26.66-89.25-65.69-111.2zm-190.3 175.2c-52.94 0-96-43.06-96-96s43.06-96 96-96v-32l80 48-80 48v-32c-35.3 0-64 28.69-64 64s28.7 64 64 64c35.28 0 64-28.69 64-64h32c0 52.94-43.06 96-96 96z"/></svg>
