<?xml version="1.0" encoding="UTF-8"?>
<svg width="4.1143mm" height="5.2886mm" version="1.1" viewBox="0 0 4.1143 5.2886" xmlns="http://www.w3.org/2000/svg">
 <g transform="translate(78.673 22.207)">
  <path d="m-74.859-17.752h-0.25088v-2.996l-0.75261-0.78156h-2.0571v-0.33868c0-0.18236 0.15052-0.33868 0.32613-0.33868h2.7345c0.17562 0 0.30105 0.15632 0.30105 0.33868v3.8036c0 0.18236-0.12543 0.31262-0.30105 0.31262zm-3.4871-3.6212h2.032v0.80761c0 0.15632 0.12543 0.28657 0.27596 0.28657h0.72752v3.0481c0 0.18236-0.12543 0.31262-0.30105 0.31262h-2.7345c-0.17562 0-0.32613-0.13026-0.32613-0.31262v-3.8036c0-0.18236 0.15052-0.33868 0.32613-0.33868zm0.22578 3.3346h2.1575v0.28657h-2.1575zm0.22578-0.57314h1.7059v0.28657h-1.7059zm-0.22578-0.5992h2.1575v0.28657h-2.1575zm0.30105-0.5992h1.5554v0.31262h-1.5554zm1.6558-1.5631h0.15052l0.70244 0.7555v0.15632h-0.72752c-0.07527 0-0.12543-0.0521-0.12543-0.1042z" fill-rule="evenodd" stroke-width=".83284"/>
 </g>
</svg>
