<?xml version="1.0" encoding="UTF-8"?>
<svg width="4.7794mm" height="4.2333mm" version="1.1" viewBox="0 0 4.7794 4.2333" xmlns="http://www.w3.org/2000/svg">
 <path d="m0.28113 1.3138 0.38657 1.7518h3.4089l0.42172-1.7518c0-0.036495-0.035157-0.072989-0.07028-0.036495-0.246 0.40144-0.94886 1.2408-2.0383-0.54742h-0.035157c-1.0894 1.7882-1.7923 0.94886-2.0383 0.54742 0-0.036494-0.035155 0-0.035155 0.036495zm2.3545-1.0583c0-0.14598-0.10543-0.25546-0.246-0.25546s-0.246 0.10948-0.246 0.25546 0.10543 0.29196 0.246 0.29196 0.246-0.14598 0.246-0.29196zm2.1437 0.54742c0-0.14598-0.14057-0.25546-0.28114-0.25546s-0.246 0.10948-0.246 0.25546 0.10543 0.25546 0.246 0.25546 0.28114-0.10948 0.28114-0.25546zm-4.2523 0c0-0.14598-0.14057-0.25546-0.28114-0.25546s-0.246 0.10948-0.246 0.25546 0.10543 0.25546 0.246 0.25546 0.28114-0.10948 0.28114-0.25546zm3.5142 2.5546h-3.3035v0.87587h3.3035z" stroke-width="1.129"/>
</svg>
