<svg width="23.46mm" height="23.04mm" version="1.1" viewBox="0 0 23.46 23.04" xmlns="http://www.w3.org/2000/svg">
 <g transform="translate(-106.9 -158.7)">
  <g transform="matrix(.2646 0 0 .2646 105.4 157)">
   <path d="m9.795 6.459c-2.277 0-4.129 1.85-4.129 4.127v18.66c0 2.277 1.852 4.129 4.129 4.129v-0.0039h80.41c2.277 0 4.129-1.85 4.129-4.127v-18.66c0-2.277-1.854-4.127-4.133-4.127h-80.41zm9.33 6.332c3.928 0 7.125 3.197 7.125 7.125s-3.197 7.125-7.125 7.125-7.125-3.197-7.125-7.125 3.197-7.125 7.125-7.125zm0 3.168c-2.182 0-3.959 1.774-3.959 3.957s1.777 3.959 3.959 3.959 3.959-1.776 3.959-3.959-1.777-3.957-3.959-3.957zm37.21 0a1.583 1.583 0 0 1 1.582 1.582 1.583 1.583 0 0 1-1.582 1.584 1.583 1.583 0 0 1-1.584-1.584 1.583 1.583 0 0 1 1.584-1.582zm6.332 0a1.583 1.583 0 0 1 1.584 1.582 1.583 1.583 0 0 1-1.584 1.584 1.583 1.583 0 0 1-1.582-1.584 1.583 1.583 0 0 1 1.582-1.582zm6.334 0a1.583 1.583 0 0 1 1.584 1.582 1.583 1.583 0 0 1-1.584 1.584 1.583 1.583 0 0 1-1.584-1.584 1.583 1.583 0 0 1 1.584-1.582zm6.334 0a1.583 1.583 0 0 1 1.582 1.582 1.583 1.583 0 0 1-1.582 1.584 1.583 1.583 0 0 1-1.584-1.584 1.583 1.583 0 0 1 1.584-1.582zm6.332 0a1.583 1.583 0 0 1 1.584 1.582 1.583 1.583 0 0 1-1.584 1.584 1.583 1.583 0 0 1-1.582-1.584 1.583 1.583 0 0 1 1.582-1.582zm-22.17 4.75a1.583 1.583 0 0 1 1.584 1.582 1.583 1.583 0 0 1-1.584 1.584 1.583 1.583 0 0 1-1.584-1.584 1.583 1.583 0 0 1 1.584-1.582zm6.334 0a1.583 1.583 0 0 1 1.582 1.582 1.583 1.583 0 0 1-1.582 1.584 1.583 1.583 0 0 1-1.584-1.584 1.583 1.583 0 0 1 1.584-1.582zm6.332 0a1.583 1.583 0 0 1 1.584 1.582 1.583 1.583 0 0 1-1.584 1.584 1.583 1.583 0 0 1-1.582-1.584 1.583 1.583 0 0 1 1.582-1.582zm6.334 0a1.583 1.583 0 0 1 1.584 1.582 1.583 1.583 0 0 1-1.584 1.584 1.583 1.583 0 0 1-1.584-1.584 1.583 1.583 0 0 1 1.584-1.582zm6.334 0a1.583 1.583 0 0 1 1.582 1.582 1.583 1.583 0 0 1-1.582 1.584 1.583 1.583 0 0 1-1.584-1.584 1.583 1.583 0 0 1 1.584-1.582zm-75.04 15.83c-2.277 0-4.129 1.852-4.129 4.129v18.66c0 2.277 1.852 4.127 4.129 4.125h80.41c2.277 0 4.129-1.852 4.129-4.129v-18.66c0-2.277-1.854-4.129-4.133-4.129h-80.41zm9.33 6.334c3.928 0 7.125 3.197 7.125 7.125s-3.197 7.125-7.125 7.125-7.125-3.197-7.125-7.125 3.197-7.125 7.125-7.125zm0 3.166c-2.182 0-3.959 1.776-3.959 3.959s1.777 3.959 3.959 3.959 3.959-1.776 3.959-3.959-1.777-3.959-3.959-3.959zm37.21 0a1.583 1.583 0 0 1 1.582 1.584 1.583 1.583 0 0 1-1.582 1.584 1.583 1.583 0 0 1-1.584-1.584 1.583 1.583 0 0 1 1.584-1.584zm6.332 0a1.583 1.583 0 0 1 1.584 1.584 1.583 1.583 0 0 1-1.584 1.584 1.583 1.583 0 0 1-1.582-1.584 1.583 1.583 0 0 1 1.582-1.584zm6.334 0a1.583 1.583 0 0 1 1.584 1.584 1.583 1.583 0 0 1-1.584 1.584 1.583 1.583 0 0 1-1.584-1.584 1.583 1.583 0 0 1 1.584-1.584zm6.334 0a1.583 1.583 0 0 1 1.582 1.584 1.583 1.583 0 0 1-1.582 1.584 1.583 1.583 0 0 1-1.584-1.584 1.583 1.583 0 0 1 1.584-1.584zm6.332 0a1.583 1.583 0 0 1 1.584 1.584 1.583 1.583 0 0 1-1.584 1.584 1.583 1.583 0 0 1-1.582-1.584 1.583 1.583 0 0 1 1.582-1.584zm-22.17 4.75a1.583 1.583 0 0 1 1.584 1.584 1.583 1.583 0 0 1-1.584 1.584 1.583 1.583 0 0 1-1.584-1.584 1.583 1.583 0 0 1 1.584-1.584zm6.334 0a1.583 1.583 0 0 1 1.582 1.584 1.583 1.583 0 0 1-1.582 1.584 1.583 1.583 0 0 1-1.584-1.584 1.583 1.583 0 0 1 1.584-1.584zm6.332 0a1.583 1.583 0 0 1 1.584 1.584 1.583 1.583 0 0 1-1.584 1.584 1.583 1.583 0 0 1-1.582-1.584 1.583 1.583 0 0 1 1.582-1.584zm6.334 0a1.583 1.583 0 0 1 1.584 1.584 1.583 1.583 0 0 1-1.584 1.584 1.583 1.583 0 0 1-1.584-1.584 1.583 1.583 0 0 1 1.584-1.584zm6.334 0a1.583 1.583 0 0 1 1.582 1.584 1.583 1.583 0 0 1-1.582 1.584 1.583 1.583 0 0 1-1.584-1.584 1.583 1.583 0 0 1 1.584-1.584zm-75.04 15.83c-2.277 0-4.129 1.852-4.129 4.129v18.66c0 2.277 1.852 4.127 4.129 4.125h80.41c2.277 0 4.129-1.852 4.129-4.129v-18.66c0-2.277-1.854-4.129-4.133-4.129h-80.41zm9.33 6.334c3.928 0 7.125 3.197 7.125 7.125s-3.197 7.125-7.125 7.125-7.125-3.197-7.125-7.125 3.197-7.125 7.125-7.125zm0 3.166c-2.182 0-3.959 1.776-3.959 3.959s1.777 3.957 3.959 3.957 3.959-1.774 3.959-3.957-1.777-3.959-3.959-3.959zm37.21 0a1.583 1.583 0 0 1 1.582 1.584 1.583 1.583 0 0 1-1.582 1.582 1.583 1.583 0 0 1-1.584-1.582 1.583 1.583 0 0 1 1.584-1.584zm6.332 0a1.583 1.583 0 0 1 1.584 1.584 1.583 1.583 0 0 1-1.584 1.582 1.583 1.583 0 0 1-1.582-1.582 1.583 1.583 0 0 1 1.582-1.584zm6.334 0a1.583 1.583 0 0 1 1.584 1.584 1.583 1.583 0 0 1-1.584 1.582 1.583 1.583 0 0 1-1.584-1.582 1.583 1.583 0 0 1 1.584-1.584zm6.334 0a1.583 1.583 0 0 1 1.582 1.584 1.583 1.583 0 0 1-1.582 1.582 1.583 1.583 0 0 1-1.584-1.582 1.583 1.583 0 0 1 1.584-1.584zm6.332 0a1.583 1.583 0 0 1 1.584 1.584 1.583 1.583 0 0 1-1.584 1.582 1.583 1.583 0 0 1-1.582-1.582 1.583 1.583 0 0 1 1.582-1.584zm-22.17 4.75a1.583 1.583 0 0 1 1.584 1.584 1.583 1.583 0 0 1-1.584 1.582 1.583 1.583 0 0 1-1.584-1.582 1.583 1.583 0 0 1 1.584-1.584zm6.334 0a1.583 1.583 0 0 1 1.582 1.584 1.583 1.583 0 0 1-1.582 1.582 1.583 1.583 0 0 1-1.584-1.582 1.583 1.583 0 0 1 1.584-1.584zm6.332 0a1.583 1.583 0 0 1 1.584 1.584 1.583 1.583 0 0 1-1.584 1.582 1.583 1.583 0 0 1-1.582-1.582 1.583 1.583 0 0 1 1.582-1.584zm6.334 0a1.583 1.583 0 0 1 1.584 1.584 1.583 1.583 0 0 1-1.584 1.582 1.583 1.583 0 0 1-1.584-1.582 1.583 1.583 0 0 1 1.584-1.584zm6.334 0a1.583 1.583 0 0 1 1.582 1.584 1.583 1.583 0 0 1-1.582 1.582 1.583 1.583 0 0 1-1.584-1.582 1.583 1.583 0 0 1 1.584-1.584z"/>
  </g>
 </g>
</svg>
