<?xml version="1.0" encoding="UTF-8"?>
<svg width="3.8968mm" height="4.2333mm" version="1.1" viewBox="0 0 3.8968 4.2333" xmlns="http://www.w3.org/2000/svg">
 <g transform="translate(-195.15 -176.2)">
  <path d="m196.08 177.04c0.12 0 0.20992-0.0933 0.20992-0.21782v-0.40467c0-0.12456-0.0899-0.21783-0.20992-0.21783-0.12001 0-0.20993 0.0933-0.20993 0.21783v0.40467c0 0.12456 0.0899 0.21782 0.20993 0.21782z"/>
  <path d="m197.4 177.04c0.12 0 0.20993-0.0933 0.20993-0.21782v-0.40467c0-0.12456-0.0899-0.21783-0.20993-0.21783-0.0899 0-0.17985 0.0933-0.17985 0.21783v0.40467c0 0.12456 0.0899 0.21782 0.17985 0.21782z"/>
  <path d="m196.2 177.91h-0.41968c-0.0304 0-0.0599 0.031-0.0599 0.0623v0.28011c0 0.0313 0.0304 0.0623 0.0599 0.0623h0.41968c0.0304 0 0.0599-0.0313 0.0599-0.0623v-0.28011c0-0.031-0.0304-0.0623-0.0599-0.0623z"/>
  <path d="m196.95 177.91h-0.41964c-0.0304 0-0.0599 0.031-0.0599 0.0623v0.28011c0 0.0313 0.0304 0.0623 0.0599 0.0623h0.41964c0.0304 0 0.0599-0.0313 0.0599-0.0623v-0.28011c0-0.031-0.0304-0.0623-0.0599-0.0623z"/>
  <path d="m197.31 178.31h0.38969c0.0304 0 0.0598-0.0313 0.0598-0.0623v-0.28011c0-0.031-0.0304-0.0623-0.0598-0.0623h-0.38969c-0.0304 0-0.0599 0.031-0.0599 0.0623v0.28011c0 0.0313 0.0304 0.0623 0.0599 0.0623z"/>
  <path d="m196.2 178.62h-0.41968c-0.0304 0-0.0599 0.031-0.0599 0.0623v0.24912c0 0.0623 0.0304 0.0623 0.0599 0.0623h0.41968c0.0304 0 0.0599 0 0.0599-0.0623v-0.24912c0-0.031-0.0304-0.0623-0.0599-0.0623z"/>
  <path d="m196.95 178.62h-0.41964c-0.0304 0-0.0599 0.031-0.0599 0.0623v0.24912c0 0.0623 0.0304 0.0623 0.0599 0.0623h0.41964c0.0304 0 0.0599 0 0.0599-0.0623v-0.24912c0-0.031-0.0304-0.0623-0.0599-0.0623z"/>
  <path d="m198.33 178.47v-1.3385c0-0.24912-0.17985-0.43577-0.41965-0.43577h-0.14977v0.12456c0 0.18684-0.14978 0.34241-0.35971 0.34241-0.17985 0-0.32972-0.15554-0.32972-0.34241v-0.12456h-0.62948v0.12456c0 0.18684-0.14977 0.34241-0.3597 0.34241-0.17986 0-0.32972-0.15554-0.32972-0.34241v-0.12456h-0.17985c-0.23971 0-0.41968 0.18684-0.41968 0.43577v2.0233c0 0.24912 0.17985 0.43581 0.41968 0.43581h1.5887c0.0599 0.46692 0.44963 0.84047 0.92925 0.84047 0.50957 0 0.9592-0.46694 0.9592-0.99611 0-0.46692-0.29986-0.84048-0.71941-0.96498zm-2.9076 0.68481v-1.5253h2.6678v0.80933c-0.50961 0-0.89927 0.40467-0.95924 0.90273h-1.5587c-0.0899 0-0.14977-0.0933-0.14977-0.18684zm2.6678 0.99611c-0.38969 0-0.68946-0.34241-0.68946-0.71594 0-0.40467 0.29986-0.71595 0.68946-0.71595 0.38966 0 0.68942 0.31128 0.68942 0.71595 0 0.37353-0.29986 0.71594-0.68942 0.71594z"/>
  <path d="m198.42 179.5-0.20992-0.15555v-0.24912c0-0.0933-0.0599-0.15555-0.12001-0.15555-0.0598 0-0.12 0.0623-0.12 0.15555v0.34242c0 0.031 0 0.0933 0.0599 0.0933l0.26978 0.18684s0.0304 0.0313 0.0599 0.0313c0.0304 0 0.0899-0.0313 0.12-0.0623 0.0304-0.0623 0-0.15555-0.0599-0.18684z"/>
 </g>
</svg>
