<?xml version="1.0" encoding="UTF-8"?>
<svg width="3.1749mm" height="3.175mm" version="1.1" viewBox="0 0 3.1749 3.175" xmlns="http://www.w3.org/2000/svg">
 <g transform="translate(-203.01 -74.928)">
  <path d="m204.78 74.928-0.18675 0.3424c-0.1246 0-0.21797 0.03114-0.31134 0.03114l-0.28011-0.28016-0.40459 0.24902 0.1246 0.37353c-0.0934 0.06225-0.15551 0.15564-0.18674 0.24902h-0.40459l-0.1246 0.43579 0.34235 0.18678c0 0.09339 0.0315 0.21788 0.0315 0.31128l-0.28011 0.28013 0.24889 0.37353 0.37348-0.09339c0.0621 0.09339 0.15551 0.15564 0.24889 0.18678v0.40466l0.43572 0.1245 0.18674-0.3424c0.0934 0 0.21797-0.03114 0.31134-0.06225l0.28012 0.28016 0.37348-0.21788-0.0934-0.37353c0.0934-0.09339 0.15551-0.15564 0.18674-0.24902h0.40459l0.1246-0.43578-0.34235-0.18678c0-0.1245-0.0315-0.21788-0.0621-0.31128l0.28011-0.28016-0.21797-0.40466-0.37349 0.12453c-0.0934-0.09339-0.15551-0.15564-0.24888-0.18678v-0.40466zm-0.18675 0.68481c0.49799 0 0.90258 0.40466 0.90258 0.9027 0 0.49804-0.40459 0.9027-0.90258 0.9027s-0.90257-0.40466-0.90257-0.9027c0-0.49804 0.40458-0.9027 0.90257-0.9027z" fill-rule="evenodd"/>
 </g>
</svg>
