<svg width="3.906mm" height="4.074mm" version="1.1" viewBox="0 0 3.906 4.074" xmlns="http://www.w3.org/2000/svg">
 <g transform="translate(-78.93 -90.95)">
  <g fill="#fff">
   <path d="m128.1 88.15-0.0599-0.04007-0.1798-0.1502c-0.0899 0.03005-0.1898 0.05008-0.2797 0.05008-0.2298 0-0.4496-0.08013-0.6294-0.2204-0.2098-0.1703-0.3397-0.4107-0.3597-0.6711-0.02-0.1202-0.01-0.2304 0.01-0.3406-0.1698 0.2404-0.2098 0.5509-0.0799 0.8314 0.1199 0.2905 0.3896 0.4708 0.6794 0.4908l0.1399 0.3005 0.3397 0.1302-0.0999 0.2704 0.2698 0.1002-0.1099 0.2604 0.2698 0.1002-0.0999 0.2805 0.4696 0.1803c0.0499 0.02003 0.0799 0 0.1099-0.0601l0.1399-0.3706-0.5095-1.142z"/>
   <path d="m126.6 85.65c-0.2498 0-0.4796 0.1202-0.6194 0.3105-0.1199 0.1402-0.1898 0.3305-0.1898 0.5309 0 0.3205 0.1798 0.601 0.4396 0.7412 0-0.08013 0.01-0.1502 0.03-0.2304-0.1499-0.1102-0.2598-0.3005-0.2598-0.5108 0-0.1502 0.0499-0.2805 0.1299-0.3906 0.1099-0.1402 0.2797-0.2404 0.4696-0.2404 0.3297 0 0.5994 0.2805 0.5994 0.631 0 0.08013-0.02 0.1603-0.0499 0.2304-0.01 0.05008 0 0 0 0-0.01 0.04007 0 0.09015 0.04 0.1302 0.02 0.01002 0.0499 0.02003 0.0599 0.02003 0.04 0 0.0699-0.02003 0.0899-0.04007 0.01-0.01002 0.01-0.03005 0.02-0.04007 0.03-0.1002 0.05-0.2003 0.05-0.3005 0-0.4608-0.3597-0.8414-0.8092-0.8414z"/>
   <path d="m129.7 88.58-0.04-0.4007-1.309-1.042c0.04-0.2905-0.0599-0.591-0.2997-0.7813-0.1598-0.1302-0.3397-0.1903-0.5295-0.1903 0.04 0.1102 0.06 0.2103 0.06 0.3305s-0.02 0.2304-0.06 0.3406c-0.01 0.04007-0.03 0.07012-0.0499 0.1002-0.06 0.07012-0.1299 0.1002-0.2198 0.1002-0.0599 0-0.1199-0.02003-0.1698-0.0601-0.0699-0.0601-0.1099-0.1502-0.0999-0.2404 0-0.01002 0.01-0.02003 0.01-0.03005v-0.01002s0-0.01002 0.01-0.02003c0.02-0.0601 0.04-0.1202 0.04-0.1803 0-0.05008-0.01-0.1002-0.03-0.1502-0.05 0.04007-0.0899 0.08013-0.1299 0.1402-0.2897 0.3506-0.2298 0.8815 0.1299 1.172 0.2398 0.1903 0.5595 0.2304 0.8292 0.1202l0.2598 0.2003 0.3597-0.04007 0.03 0.2805 0.2897-0.03005 0.03 0.2805 0.2797-0.03005 0.03 0.2905h0.01l0.4896-0.05008c0.0599-0.01002 0.0799-0.04007 0.0799-0.1002z"/>
  </g>
  <g>
   <path d="m81.19 93.44-0.05994-0.04007-0.1798-0.1502c-0.08992 0.03005-0.1898 0.05008-0.2797 0.05008-0.2298 0-0.4496-0.08013-0.6294-0.2204-0.2098-0.1703-0.3397-0.4107-0.3597-0.6711-0.01998-0.1202-0.01-0.2304 0.01-0.3406-0.1698 0.2404-0.2098 0.5509-0.07993 0.8314 0.1199 0.2905 0.3896 0.4708 0.6794 0.4908l0.1399 0.3005 0.3397 0.1302-0.09991 0.2704 0.2697 0.1002-0.1099 0.2604 0.2697 0.1002-0.09991 0.2805 0.4696 0.1803c0.04995 0.02003 0.07993 0 0.1099-0.0601l0.1399-0.3706-0.5095-1.142z"/>
   <path d="m79.74 90.95c-0.2498 0-0.4796 0.1202-0.6194 0.3105-0.1199 0.1402-0.1898 0.3305-0.1898 0.5309 0 0.3205 0.1798 0.601 0.4396 0.7412 0-0.08013 0.01-0.1502 0.02997-0.2304-0.1499-0.1102-0.2598-0.3005-0.2598-0.5108 0-0.1502 0.04995-0.2805 0.1299-0.3906 0.1099-0.1402 0.2797-0.2404 0.4696-0.2404 0.3297 0 0.5994 0.2805 0.5994 0.631 0 0.08013-0.01998 0.1603-0.04995 0.2304-0.01 0.05008 0 0 0 0-0.01 0.04007 0 0.09015 0.03996 0.1302 0.01998 0.01002 0.04995 0.02003 0.05994 0.02003 0.03996 0 0.06994-0.02003 0.08992-0.04007 0.01-0.01002 0.01-0.03005 0.01998-0.04007 0.02997-0.1002 0.04995-0.2003 0.04995-0.3005 0-0.4608-0.3597-0.8414-0.8092-0.8414z"/>
   <path d="m82.84 93.87-0.03996-0.4007-1.309-1.042c0.03996-0.2905-0.05994-0.591-0.2997-0.7813-0.1599-0.1302-0.3397-0.1903-0.5295-0.1903 0.03996 0.1102 0.05994 0.2103 0.05994 0.3305s-0.01998 0.2304-0.05994 0.3406c-0.01 0.04007-0.02997 0.07012-0.04995 0.1002-0.05994 0.07012-0.1299 0.1002-0.2198 0.1002-0.05994 0-0.1199-0.02003-0.1698-0.0601-0.06994-0.0601-0.1099-0.1502-0.09991-0.2404 0-0.01002 0.01-0.02003 0.01-0.03005v-0.01002s0-0.01002 0.01-0.02003c0.01998-0.0601 0.03996-0.1202 0.03996-0.1803 0-0.05008-0.01-0.1002-0.02997-0.1502-0.04995 0.04007-0.08992 0.08013-0.1299 0.1402-0.2897 0.3506-0.2298 0.8815 0.1299 1.172 0.2398 0.1903 0.5595 0.2304 0.8292 0.1202l0.2598 0.2003 0.3597-0.04007 0.02997 0.2805 0.2897-0.03005 0.02997 0.2805 0.2797-0.03005 0.02997 0.2905h0.01l0.4895-0.05008c0.05994-0.01002 0.07993-0.04007 0.07993-0.1002z"/>
  </g>
 </g>
</svg>
