<?xml version="1.0" encoding="UTF-8"?>
<svg width="26.458mm" height="3.6657mm" version="1.1" viewBox="0 0 26.458 3.6657" xmlns="http://www.w3.org/2000/svg">
 <g transform="translate(-139.08 -56.082)">
  <path d="m139.08 58.969 0.21877-0.12974v-2.433l-0.21877-0.1622h0.74971l0.68725 1.8166 0.68724-1.8166h0.71846l-0.21877 0.1622v2.433l0.21877 0.12974h-0.78096v-1.7842h-0.0317l-0.71849 1.9788h-0.0317l-0.74971-1.9139v1.7193zm3.0301-1.849v-0.87586h1.9992v0.87586c-0.0317-0.06487-0.0624-0.1622-0.0624-0.22707-0.0317-0.06487-0.0624-0.12974-0.12506-0.19465-0.0317-0.03245-0.0937-0.09732-0.15608-0.12978-0.0624-0.03245-0.15608-0.06487-0.21877-0.06487h-0.15609v2.0112c0 0.06487 0 0.12974 0.0317 0.1622 0 0.06487 0.0317 0.09732 0.0317 0.12974 0.0317 0.03245 0.0624 0.06487 0.0937 0.06487 0.0317 0.03245 0.0624 0.06487 0.0937 0.06487 0 0 0.0317 0.03245 0.0624 0.03245h-1.1871l0.31248-0.12974v-2.3356h-0.12505c-0.0624 0-0.12506 0.03245-0.18743 0.03245-0.0624 0.03245-0.0937 0.06487-0.15609 0.09732-0.0317 0.06487-0.0624 0.09732-0.0937 0.16219-0.0317 0.03245-0.0624 0.09732-0.0937 0.1622 0 0.03245-0.0317 0.09732-0.0317 0.1622zm2.1867 0.48659c0-0.19465 0.0317-0.38927 0.0937-0.58391 0.0624-0.1622 0.15609-0.3244 0.2498-0.45415 0.12506-0.09732 0.2498-0.19465 0.4061-0.25952 0.15609-0.06487 0.31249-0.09732 0.46857-0.09732 0.40608 0 0.68722 0.09732 0.90589 0.32439l-0.4061 0.61635-0.0317-0.03245c0.0317-0.06487 0.0317-0.12974 0.0317-0.1622 0-0.1622-0.0624-0.25952-0.12506-0.35683-0.0624-0.09732-0.18742-0.12974-0.34364-0.12974-0.18742 0-0.3436 0.09732-0.46857 0.29197-0.12505 0.1622-0.18742 0.45415-0.18742 0.81099 0 0.42171 0.0624 0.71367 0.18742 0.9083 0.0937 0.19465 0.28115 0.29194 0.49982 0.29194 0.12506 0 0.2498-0.03245 0.34361-0.09732v-0.38927c0-0.19465-0.0317-0.3244-0.0937-0.42171-0.0937-0.09732-0.18743-0.19465-0.34361-0.22707v-0.03245h0.9996v2.141c-0.15608-0.19465-0.3436-0.3244-0.56228-0.38927v-0.58391l-0.31249 0.25952h-0.12505c-0.18743 0-0.34361-0.03245-0.49982-0.09732-0.12506-0.06487-0.2498-0.1622-0.37486-0.25952-0.0937-0.12974-0.18742-0.25952-0.24979-0.45415-0.0624-0.19465-0.0624-0.38927-0.0624-0.61635zm3.155 1.3625 0.18743-0.12974 1.0621-2.7249h0.0317l1.0308 2.7249 0.18743 0.12974h-0.71849l-0.31249-0.81099-0.31248 0.22707h-0.46857l-0.0624 0.12974c-0.0317 0.06487-0.0317 0.12974-0.0317 0.19465 0 0.12974 0.0624 0.22707 0.18742 0.25952zm0.81218-0.87586h0.65599l-0.31248-0.87586h-0.0317zm1.7493 0.87586 0.21878-0.12974v-1.33c0-0.16219-0.0317-0.25952-0.0317-0.3244-0.0317-0.06487-0.0937-0.09732-0.18743-0.12974v-0.03245h0.74974v0.32439c0.15608-0.22707 0.40607-0.35683 0.74971-0.35683l-0.0317 0.71367h-0.0317c-0.0317-0.09732-0.0937-0.1622-0.15608-0.19465-0.0624-0.06487-0.12506-0.09732-0.18743-0.09732-0.12506 0-0.2498 0.06487-0.34361 0.19465v0.84342c0 0.06487 0 0.12974 0.0317 0.19465 0 0.06487 0.0317 0.09732 0.0317 0.12974 0.0317 0.03245 0.0317 0.06487 0.0624 0.09732 0.0317 0.03245 0.0624 0.03245 0.0937 0.06487 0.0317 0 0.0624 0 0.0937 0.03245zm1.5619-0.94074c0-0.16219 0-0.29197 0.0624-0.42171s0.12506-0.25952 0.18743-0.35683c0.0937-0.06487 0.18743-0.12974 0.31248-0.19465 0.12506-0.03245 0.21878-0.06487 0.37486-0.06487 0.21877 0 0.4061 0.06487 0.56228 0.22707 0.12506 0.12974 0.18743 0.32439 0.18743 0.58391v0.19465h-0.87467l-0.2498-0.16219v0.16219c0 0.51903 0.15608 0.77855 0.43732 0.77855 0.21877 0 0.37486-0.06487 0.49982-0.19465l0.12505 0.09732c-0.15608 0.22707-0.4061 0.35684-0.68724 0.35684s-0.53104-0.09732-0.68725-0.25952c-0.18742-0.19465-0.24979-0.42171-0.24979-0.74611zm0.59353-0.25952h0.46857c0.0624 0 0.12506-0.03245 0.15609-0.06487 0.0317-0.03245 0.0317-0.06487 0.0317-0.12974 0-0.09732-0.0317-0.19465-0.0937-0.25952-0.0317-0.06487-0.12506-0.12974-0.18743-0.12974-0.21877 0-0.3436 0.19465-0.37485 0.58391zm1.2495 1.2003 0.21877-0.12974v-1.33c0-0.09732 0-0.19465-0.0317-0.25952 0-0.06487-0.0317-0.09732-0.0317-0.12974-0.0317-0.03245-0.0937-0.06487-0.15608-0.06487v-0.03245h0.74971v0.29197c0.0937-0.09732 0.18742-0.19465 0.28114-0.22707 0.12506-0.06487 0.21877-0.09732 0.34361-0.09732 0.0937 0 0.15608 0 0.21877 0.03245 0.0624 0 0.0937 0.03245 0.15608 0.06487 0.0624 0.06487 0.0937 0.12974 0.12506 0.19465 0 0.09732 0.0317 0.19465 0.0317 0.29197v1.2651l0.18743 0.12974h-0.74971v-1.2976c0-0.12974 0-0.19465-0.0624-0.25952-0.0317-0.03245-0.0937-0.06487-0.15608-0.06487-0.0624 0-0.12506 0-0.18743 0.03245-0.0624 0.06487-0.12505 0.09732-0.18742 0.1622v0.94074c0 0.1622 0.0317 0.29194 0.0624 0.35683 0 0.03245 0.0624 0.09732 0.15608 0.12974zm2.2491-0.45415c0-0.12974 0.0317-0.22707 0.0937-0.3244 0.0624-0.09732 0.12505-0.1622 0.21877-0.19465 0.0937-0.06487 0.21877-0.09732 0.3436-0.12974 0.12506-0.03245 0.2498-0.03245 0.40611-0.03245v-0.12974c0-0.19465-0.0317-0.3244-0.0624-0.38927-0.0317-0.06487-0.0937-0.12974-0.18743-0.12974-0.0937 0-0.15608 0.03245-0.18743 0.09732-0.0624 0.06487-0.0624 0.12974-0.0624 0.22707 0 0.06487 0 0.12974 0.0317 0.1622l-0.0317 0.03245-0.49978-0.3244c0.0624-0.12974 0.18742-0.22707 0.31248-0.29194 0.12506-0.06487 0.28114-0.09732 0.46857-0.09732 0.12506 0 0.2498 0 0.31248 0.03245 0.0937 0.03245 0.18743 0.06487 0.2498 0.09732 0.0624 0.06487 0.12506 0.12974 0.15609 0.22707 0.0317 0.09732 0.0317 0.22707 0.0317 0.35683v1.1354l0.21877 0.12974h-0.74971v-0.19465c-0.15609 0.1622-0.31249 0.25952-0.49982 0.25952-0.15608 0-0.31249-0.06487-0.40607-0.12974-0.0937-0.09732-0.15609-0.22707-0.15609-0.38927zm0.56229-0.03245c0 0.09732 0 0.1622 0.0624 0.19465 0.0317 0.03245 0.0624 0.06487 0.12505 0.06487 0.12506 0 0.21877-0.09732 0.31249-0.22707v-0.48659c-0.18743 0-0.31249 0.03245-0.37486 0.09732-0.0937 0.09732-0.12505 0.19465-0.12505 0.35684zm2.1242-1.3625v-0.87586h1.9992v0.87586c-0.0317-0.06487-0.0317-0.1622-0.0624-0.22707-0.0317-0.06487-0.0624-0.12974-0.12505-0.19465-0.0317-0.03245-0.0937-0.09732-0.15609-0.12978-0.0624-0.03245-0.12505-0.06487-0.21877-0.06487h-0.15608v2.0112c0 0.06487 0.0317 0.12974 0.0317 0.1622 0.0317 0.06487 0.0317 0.09732 0.0624 0.12974 0 0.03245 0.0317 0.06487 0.0624 0.06487 0.0317 0.03245 0.0624 0.06487 0.0937 0.06487 0.0317 0 0.0624 0.03245 0.0937 0.03245h-1.2183l0.31248-0.12974v-2.3356h-0.0937c-0.0937 0-0.15609 0.03245-0.21877 0.03245-0.0317 0.03245-0.0937 0.06487-0.12506 0.09732-0.0624 0.06487-0.0937 0.09732-0.12506 0.1622-0.0317 0.03245-0.0624 0.09732-0.0937 0.16219 0 0.03245-0.0317 0.09732-0.0317 0.1622zm2.2491 1.622c-0.18743-0.1622-0.28114-0.42171-0.28114-0.74611 0-0.29194 0.0937-0.55147 0.28114-0.7461 0.15608-0.1622 0.40607-0.25952 0.68721-0.25952s0.49982 0.09732 0.68725 0.25952c0.15608 0.19465 0.2498 0.45415 0.2498 0.7461 0 0.3244-0.0937 0.58391-0.2498 0.74611-0.18743 0.19465-0.40611 0.29194-0.68725 0.29194s-0.53103-0.09732-0.68721-0.29194zm0.40607-1.3625c-0.0624 0.12974-0.0937 0.3244-0.0937 0.61635 0 0.29197 0.0317 0.51903 0.0937 0.61635 0.0624 0.12977 0.15609 0.19465 0.28114 0.19465 0.0624 0 0.12506-0.03245 0.18743-0.06487 0.0624-0.06487 0.0937-0.12977 0.12506-0.25952 0.0317-0.12974 0.0624-0.29197 0.0624-0.48659 0-0.19465-0.0317-0.35683-0.0624-0.48659-0.0317-0.09732-0.0624-0.19465-0.12506-0.22707-0.0624-0.06487-0.12506-0.09732-0.18743-0.09732-0.12505 0-0.21877 0.06487-0.28114 0.19465zm1.7494 1.3625c-0.18743-0.1622-0.28114-0.42171-0.28114-0.74611 0-0.29194 0.0937-0.55147 0.28114-0.7461 0.15608-0.1622 0.40607-0.25952 0.68721-0.25952s0.49982 0.09732 0.68725 0.25952c0.15608 0.19465 0.2498 0.45415 0.2498 0.7461 0 0.3244-0.0937 0.58391-0.2498 0.74611-0.18743 0.19465-0.40611 0.29194-0.68725 0.29194s-0.53103-0.09732-0.68721-0.29194zm0.40607-1.3625c-0.0624 0.12974-0.0937 0.3244-0.0937 0.61635 0 0.29197 0.0317 0.51903 0.0937 0.61635 0.0624 0.12977 0.15608 0.19465 0.28114 0.19465 0.0624 0 0.12506-0.03245 0.18743-0.06487 0.0624-0.06487 0.0937-0.12977 0.12506-0.25952 0.0317-0.12974 0.0317-0.29197 0.0317-0.48659 0-0.19465 0-0.35683-0.0317-0.48659-0.0317-0.09732-0.0624-0.19465-0.12506-0.22707-0.0624-0.06487-0.12506-0.09732-0.18743-0.09732-0.12506 0-0.21877 0.06487-0.28114 0.19465zm1.312-1.2651v-0.03245h0.84343v2.4005c0 0.1622 0.0317 0.29194 0.0624 0.35683 0 0.06487 0.0624 0.09732 0.15608 0.12974h-0.96838l0.21877-0.12974v-2.2708c0-0.06487 0-0.16219-0.0317-0.19465 0-0.06487-0.0317-0.09732-0.0624-0.12974 0-0.03245-0.0317-0.06487-0.0624-0.09732-0.0624 0-0.0937-0.03245-0.15609-0.03245z" />
 </g>
</svg>
