<svg width="4.06mm" height="1.619mm" version="1.1" viewBox="0 0 4.06 1.619" xmlns="http://www.w3.org/2000/svg">
 <g transform="translate(-99.27 13.66)">
  <path d="m102.5-12.4h0.1999v0.1903l0.1199-0.1302 0.06-0.06008h0.1199v0.1903h0.1599v-0.1903h0.05c0.1499 0 0.1499-0.2403 0-0.2403h-0.7096l-0.1899-0.2403h-0.6097v0.3805c0.07 0.04005 0.2898 0.1302 0.3598 0.3405h0.2499zm-2.669-1.011h0.3098l1.379-0.2403c0.1199-0.03004 0.1599 0.04005 0.2099 0.1001l0.6196 0.5407h-0.6496l-0.1899-0.1702c-0.1099-0.1001-0.3598-0.06008-0.4398 0.09012-0.09 0.1602-0.08 0.4105-0.07 0.6208h0.4498c0.1399 0 0.6097 0.3104 0.4398 0.4306l-1.269-0.01001c-0.1999 0-0.3798-0.1402-0.4198-0.3405h-0.3698zm-0.5697-0.1702h0.4597v1.432h-0.4597z" fill="#fff" fill-rule="evenodd"/>
 </g>
</svg>
