<?xml version="1.0" encoding="UTF-8"?>
<svg width="4.2333mm" height="4.3962mm" version="1.1" viewBox="0 0 4.2333 4.3962" xmlns="http://www.w3.org/2000/svg">
 <g transform="translate(-110.45 -16.69)">
  <path d="m112.57 21.086c-1.1828 0-2.1167-1.0021-2.1167-2.1981 0-1.2283 0.93383-2.1981 2.1167-2.1981 1.1517 0 2.1167 0.96975 2.1167 2.1981 0 1.196-0.96493 2.1981-2.1167 2.1981zm0-0.42022c0.93382 0 1.712-0.80812 1.712-1.7779 0-1.0021-0.77821-1.8102-1.712-1.8102-0.96497 0-1.7431 0.80812-1.7431 1.8102 0 0.96974 0.77817 1.7779 1.7431 1.7779zm0-1.7132 0.65368 0.35557c0.0934 0.03234 0.12461 0.16162 0.0934 0.2586-0.0622 0.09698-0.15553 0.12928-0.24892 0.09698l-0.7782-0.3879c-0.0621-0.06464-0.0934-0.12928-0.0934-0.19396v-1.196c0-0.09698 0.0622-0.19396 0.18677-0.19396 0.0934 0 0.18676 0.09698 0.18676 0.19396z" />
 </g>
</svg>
