<?xml version="1.0" encoding="UTF-8"?>
<svg width="6.3499mm" height="4.7965mm" version="1.1" viewBox="0 0 6.3499 4.7965" xmlns="http://www.w3.org/2000/svg">
 <g transform="translate(-105.97 -140.47)">
  <path d="m112.3 142.8-0.40568-0.4213c-0.90505-0.93982-2.1222-1.3287-3.2768-1.1667l0.21857 0.38892 0.0316 0.0323c0.0936 0 0.15594-0.0323 0.24956-0.0323 0.65537 0 1.1859 0.55093 1.1859 1.2639 0 0.32408-0.12494 0.61574-0.31218 0.8102l0.0316 0.0648 0.31219 0.55096v0.0648c0.56175-0.19452 1.0611-0.51853 1.498-0.97226l0.43693-0.48612c0.0623-0.0323 0.0623-0.0648 0.0316-0.0971zm-2.4342 1.0371-0.24956-0.45373-0.68659-1.2315-0.24956-0.45373-0.24956-0.4537-0.43693-0.77781-0.28088 0.19452 0.3745 0.68058 0.31219 0.55093 0.24955 0.45373 0.68659 1.2315 0.24956 0.42131 0.24956 0.48612 0.4369 0.77781 0.31219-0.16194-0.3745-0.68058zm-0.0316-0.97224c0-0.4213-0.31218-0.74541-0.68658-0.74541l0.59296 1.1019c0.0623-0.0971 0.0936-0.22678 0.0936-0.35647zm-1.3107-0.3565c-0.0623 0.0971-0.0936 0.22679-0.0936 0.3565 0 0.38889 0.31219 0.74539 0.71778 0.74539zm0.8738 1.5556c-0.0936 0.0323-0.15593 0.0323-0.24956 0.0323-0.65537 0-1.1859-0.55093-1.1859-1.2315 0-0.32411 0.12494-0.61577 0.28088-0.84262v-0.0326l-0.31219-0.55093-0.0316-0.0326c-0.56174 0.19453-1.061 0.51854-1.5292 0.97224l-0.3745 0.42131c-0.0316 0.0323-0.0316 0.0648 0 0.0971l0.4369 0.48612c0.87384 0.90746 2.0597 1.2964 3.2144 1.1343l-0.21857-0.42131z" fill-rule="evenodd"/>
 </g>
</svg>
