<svg width="99.99" height="85.53" data-name="Layer 1" version="1.1" viewBox="0 0 99.99 85.53" xmlns="http://www.w3.org/2000/svg">
 <path d="m77.5 66.3h-19.81v-22.04l1.2 1.257a7.7 7.7 0 0 0 11.1-10.66l-14.45-15.08a7.7 7.7 0 0 0-10.88-0.215c-0.076 0.07-0.145 0.14-0.215 0.215l-14.45 15.08a7.694 7.694 0 0 0 11.1 10.65l1.2-1.254v22.04h-23.18a19.1 19.1 0 0 1-12.26-33.75 18.97 18.97 0 0 1 22.62-20.43c11.29-20.05 42.05-13.99 44.58 9.068a23.19 23.19 0 0 1 3.451-0.256c28.57 0 31.36 43.87 0 45.37zm-11.29-24.27a2.563 2.563 0 0 0 0.07-3.621l-14.45-15.08a2.563 2.563 0 0 0-3.621-0.07l-0.069 0.07-14.45 15.08a2.561 2.561 0 1 0 3.69 3.551l10.04-10.47v51.47a2.567 2.567 0 1 0 5.134 0v-51.47l10.04 10.47a2.559 2.559 0 0 0 3.62 0.068z"/>
 <text x="-0.0085125072" y="107.76461" fill="#000000" font-family="'Helvetica Neue', Helvetica, Arial-Unicode, Arial, Sans-serif" font-size="5px" font-weight="bold"/>
</svg>
